<svg width="114" height="20" viewBox="0 0 114 20" fill="none" xmlns="http://www.w3.org/2000/svg">
<path d="M13.4399 1.22656V4.09521H4.60205V1.22656H13.4399ZM16.0522 1.22656V19H12.3901V1.22656H16.0522ZM4.13818 1.22656H7.78809L7.33643 10.1499C7.27132 11.4845 7.14518 12.6442 6.95801 13.6289C6.77897 14.6136 6.53483 15.4518 6.22559 16.1436C5.91634 16.8271 5.53385 17.3805 5.07812 17.8037C4.63053 18.2188 4.10156 18.5239 3.49121 18.7192C2.88086 18.9064 2.18506 19 1.40381 19H0.500488V16.1436L0.964355 16.1069C1.36312 16.0662 1.71305 15.9604 2.01416 15.7896C2.31527 15.6187 2.57161 15.3623 2.7832 15.0205C3.00293 14.6787 3.18197 14.2433 3.32031 13.7144C3.4668 13.1772 3.58073 12.5221 3.66211 11.749C3.75163 10.9759 3.81266 10.0726 3.84521 9.03906L4.13818 1.22656ZM33.8379 9.69824V10.5405C33.8379 11.8914 33.6548 13.104 33.2886 14.1782C32.9224 15.2524 32.4056 16.168 31.7383 16.9248C31.071 17.6735 30.2734 18.2472 29.3457 18.646C28.4261 19.0448 27.4048 19.2441 26.2817 19.2441C25.1668 19.2441 24.1455 19.0448 23.2178 18.646C22.2982 18.2472 21.5007 17.6735 20.8252 16.9248C20.1497 16.168 19.6248 15.2524 19.2505 14.1782C18.8843 13.104 18.7012 11.8914 18.7012 10.5405V9.69824C18.7012 8.33919 18.8843 7.12663 19.2505 6.06055C19.6167 4.98633 20.1335 4.0708 20.8008 3.31396C21.4762 2.55713 22.2738 1.97933 23.1934 1.58057C24.1211 1.1818 25.1424 0.982422 26.2573 0.982422C27.3804 0.982422 28.4017 1.1818 29.3213 1.58057C30.249 1.97933 31.0465 2.55713 31.7139 3.31396C32.3893 4.0708 32.9102 4.98633 33.2764 6.06055C33.6507 7.12663 33.8379 8.33919 33.8379 9.69824ZM30.1392 10.5405V9.67383C30.1392 8.72982 30.0537 7.89974 29.8828 7.18359C29.7119 6.46745 29.4596 5.86523 29.126 5.37695C28.7923 4.88867 28.3854 4.52246 27.9053 4.27832C27.4251 4.02604 26.8758 3.8999 26.2573 3.8999C25.6388 3.8999 25.0895 4.02604 24.6094 4.27832C24.1374 4.52246 23.7345 4.88867 23.4009 5.37695C23.0754 5.86523 22.8271 6.46745 22.6562 7.18359C22.4854 7.89974 22.3999 8.72982 22.3999 9.67383V10.5405C22.3999 11.4764 22.4854 12.3065 22.6562 13.0308C22.8271 13.7469 23.0794 14.3532 23.4131 14.8496C23.7467 15.3379 24.1536 15.7082 24.6338 15.9604C25.1139 16.2127 25.6632 16.3389 26.2817 16.3389C26.9002 16.3389 27.4495 16.2127 27.9297 15.9604C28.4098 15.7082 28.8127 15.3379 29.1382 14.8496C29.4637 14.3532 29.7119 13.7469 29.8828 13.0308C30.0537 12.3065 30.1392 11.4764 30.1392 10.5405ZM48.1445 1.22656V4.09521H40.1367V19H36.4868V1.22656H48.1445ZM64.1846 9.69824V10.5405C64.1846 11.8914 64.0015 13.104 63.6353 14.1782C63.269 15.2524 62.7523 16.168 62.085 16.9248C61.4176 17.6735 60.6201 18.2472 59.6924 18.646C58.7728 19.0448 57.7515 19.2441 56.6284 19.2441C55.5135 19.2441 54.4922 19.0448 53.5645 18.646C52.6449 18.2472 51.8473 17.6735 51.1719 16.9248C50.4964 16.168 49.9715 15.2524 49.5972 14.1782C49.231 13.104 49.0479 11.8914 49.0479 10.5405V9.69824C49.0479 8.33919 49.231 7.12663 49.5972 6.06055C49.9634 4.98633 50.4801 4.0708 51.1475 3.31396C51.8229 2.55713 52.6204 1.97933 53.54 1.58057C54.4678 1.1818 55.4891 0.982422 56.604 0.982422C57.7271 0.982422 58.7484 1.1818 59.668 1.58057C60.5957 1.97933 61.3932 2.55713 62.0605 3.31396C62.736 4.0708 63.2568 4.98633 63.623 6.06055C63.9974 7.12663 64.1846 8.33919 64.1846 9.69824ZM60.4858 10.5405V9.67383C60.4858 8.72982 60.4004 7.89974 60.2295 7.18359C60.0586 6.46745 59.8063 5.86523 59.4727 5.37695C59.139 4.88867 58.7321 4.52246 58.252 4.27832C57.7718 4.02604 57.2225 3.8999 56.604 3.8999C55.9855 3.8999 55.4362 4.02604 54.9561 4.27832C54.484 4.52246 54.0812 4.88867 53.7476 5.37695C53.422 5.86523 53.1738 6.46745 53.0029 7.18359C52.832 7.89974 52.7466 8.72982 52.7466 9.67383V10.5405C52.7466 11.4764 52.832 12.3065 53.0029 13.0308C53.1738 13.7469 53.4261 14.3532 53.7598 14.8496C54.0934 15.3379 54.5003 15.7082 54.9805 15.9604C55.4606 16.2127 56.0099 16.3389 56.6284 16.3389C57.2469 16.3389 57.7962 16.2127 58.2764 15.9604C58.7565 15.7082 59.1593 15.3379 59.4849 14.8496C59.8104 14.3532 60.0586 13.7469 60.2295 13.0308C60.4004 12.3065 60.4858 11.4764 60.4858 10.5405ZM73.938 1.22656V19H70.2881V1.22656H73.938ZM79.4067 1.22656V4.09521H64.9048V1.22656H79.4067ZM85.022 13.2383L92.1631 1.22656H95.8252V19H92.1631V6.98828L85.022 19H81.3599V1.22656H85.022V13.2383ZM113.477 1.22656V19H109.814V4.09521H102.673V19H99.0112V1.22656H113.477Z" fill="white"/>
</svg>
