<svg width="40" height="40" viewBox="0 0 40 40" fill="none" xmlns="http://www.w3.org/2000/svg">
<rect x="0.5" y="0.5" width="39" height="39" rx="19.5" fill="#F97500"/>
<rect x="0.5" y="0.5" width="39" height="39" rx="19.5" stroke="#F97500"/>
<g clip-path="url(#clip0_2301_678)">
<path d="M27.9697 29.0303C28.2626 29.3232 28.7374 29.3232 29.0303 29.0303C29.3232 28.7374 29.3232 28.2626 29.0303 27.9697L27.9697 29.0303ZM25.75 19C25.75 22.7279 22.7279 25.75 19 25.75V27.25C23.5563 27.25 27.25 23.5563 27.25 19H25.75ZM19 25.75C15.2721 25.75 12.25 22.7279 12.25 19H10.75C10.75 23.5563 14.4436 27.25 19 27.25V25.75ZM12.25 19C12.25 15.2721 15.2721 12.25 19 12.25V10.75C14.4436 10.75 10.75 14.4436 10.75 19H12.25ZM19 12.25C22.7279 12.25 25.75 15.2721 25.75 19H27.25C27.25 14.4436 23.5563 10.75 19 10.75V12.25ZM29.0303 27.9697L24.8428 23.7821L23.7821 24.8428L27.9697 29.0303L29.0303 27.9697Z" fill="white"/>
</g>
<defs>
<clipPath id="clip0_2301_678">
<rect width="19" height="19" fill="white" transform="translate(10.5 10.5)"/>
</clipPath>
</defs>
</svg>
